<?xml version="1.0" standalone="no"?>
<!DOCTYPE svg PUBLIC "-//W3C//DTD SVG 20010904//EN"
 "http://www.w3.org/TR/2001/REC-SVG-20010904/DTD/svg10.dtd">
<svg version="1.0" xmlns="http://www.w3.org/2000/svg"
 width="400.000000pt" height="400.000000pt" viewBox="0 0 400.000000 400.000000"
 preserveAspectRatio="xMidYMid meet">
<metadata>
Created by potrace 1.14, written by Peter Selinger 2001-2017
</metadata>
<g transform="translate(0.000000,400.000000) scale(0.100000,-0.100000)"
fill="#000000" stroke="none">
<path d="M0 2000 l0 -2000 2000 0 2000 0 0 2000 0 2000 -2000 0 -2000 0 0
-2000z m1803 1401 c42 -76 77 -142 77 -145 0 -3 -8 -6 -18 -6 -12 0 -26 15
-38 41 -19 40 -19 40 -63 34 -74 -11 -91 -21 -91 -54 0 -39 -9 -61 -26 -61
-18 0 -18 5 7 168 25 167 23 162 51 162 19 -1 37 -25 101 -139z m519 126 c41
-18 23 -40 -22 -27 -57 16 -88 12 -104 -13 -20 -29 -41 -155 -33 -188 8 -31
44 -49 97 -49 29 0 40 -4 40 -15 0 -23 -87 -20 -127 5 -46 27 -57 54 -49 119
14 136 46 181 123 181 26 -1 60 -6 75 -13z m418 -162 c37 -19 71 -39 74 -44
15 -23 -18 -19 -73 8 l-59 30 -26 -44 c-14 -24 -26 -45 -26 -48 0 -2 23 -14
50 -27 28 -13 50 -27 50 -31 0 -19 -22 -18 -59 1 -22 11 -45 20 -50 20 -11 0
-51 -71 -51 -89 0 -5 26 -22 57 -39 55 -28 79 -52 52 -52 -9 0 -146 65 -157
75 -2 2 19 45 46 96 27 52 59 113 71 137 12 23 24 42 26 42 3 0 37 -16 75 -35z
m-1470 -11 c35 -30 110 -158 110 -189 0 -11 -7 -31 -16 -43 -19 -28 -137 -107
-141 -95 -2 5 -18 31 -36 58 -73 112 -117 187 -117 198 0 19 121 96 152 97 9
0 30 -12 48 -26z m-460 -305 c0 -5 -18 -33 -41 -62 l-41 -52 33 -27 c18 -16
39 -28 46 -28 7 0 28 17 47 37 46 51 58 34 17 -24 l-33 -46 29 -24 c56 -47 58
-47 99 5 20 26 41 51 45 56 4 4 12 5 18 2 12 -8 -13 -49 -68 -111 -39 -45 -28
-50 -172 66 -61 49 -98 86 -95 94 2 7 26 41 52 74 42 54 64 68 64 40z m2341
-15 c16 -14 12 -24 -57 -152 -41 -75 -79 -141 -84 -146 -20 -20 -21 23 -1 61
l20 40 -42 48 -42 48 -44 -23 c-36 -18 -46 -19 -57 -8 -13 13 -17 11 226 122
67 30 60 29 81 10z m269 -408 c0 -7 -8 -24 -19 -37 -35 -46 -140 -203 -137
-206 1 -2 51 18 110 43 88 38 110 44 117 33 6 -10 3 -16 -9 -21 -9 -4 -75 -32
-145 -62 -151 -65 -163 -60 -96 37 24 34 52 76 63 92 11 17 29 40 40 52 11 13
18 25 15 27 -2 2 -44 -14 -94 -36 -92 -41 -127 -50 -133 -33 -3 8 87 52 218
105 56 22 70 24 70 6z m-2815 -49 c26 -15 44 -33 50 -53 l10 -31 63 17 c49 14
62 15 62 4 0 -17 -22 -28 -87 -44 -37 -10 -54 -20 -62 -37 -17 -37 -14 -40 39
-53 54 -13 63 -19 51 -38 -6 -10 -42 -1 -147 34 -76 26 -142 50 -147 54 -10 9
27 127 49 151 23 25 70 24 119 -4z m1233 -129 c92 -45 164 -45 250 0 46 24 74
32 114 32 50 0 54 -2 103 -52 28 -30 65 -83 84 -123 40 -85 111 -305 111 -345
l0 -30 -541 0 -541 0 7 43 c11 68 83 280 116 343 88 167 159 198 297 132z
m-1208 -407 c53 -52 52 -131 -1 -175 -58 -49 -111 -46 -166 9 -28 28 -33 40
-33 80 0 40 5 52 34 81 30 30 40 34 86 34 43 0 56 -4 80 -29z m2828 -1 c37
-36 47 -78 32 -125 -35 -105 -195 -105 -230 1 -15 45 -7 75 31 119 28 32 36
35 84 35 46 0 58 -4 83 -30z m-924 -227 c2 -10 7 -34 11 -53 4 -19 9 -43 11
-52 5 -17 -28 -18 -596 -18 l-602 0 6 25 c4 14 9 45 13 70 l6 45 573 0 c537 0
573 -1 578 -17z m709 -242 c158 -67 187 -82 187 -95 0 -15 -60 -28 -218 -48
l-92 -11 117 -50 c65 -28 120 -52 122 -54 3 -2 -1 -9 -7 -15 -8 -8 -18 -9 -34
-1 -21 10 -80 35 -211 92 -29 12 -47 26 -45 33 3 8 64 23 159 39 85 15 148 27
140 28 -12 1 -221 89 -230 96 -4 4 8 25 15 25 2 0 46 -18 97 -39z m-2425 -28
c36 -103 36 -101 4 -132 -37 -38 -110 -51 -147 -27 -13 9 -26 16 -29 16 -2 0
-21 -23 -42 -51 -31 -43 -39 -48 -46 -34 -7 12 1 29 32 70 35 46 41 59 35 85
-8 35 -9 35 -65 15 -54 -19 -62 -19 -58 2 2 11 45 31 138 64 74 26 140 48 146
48 6 1 21 -25 32 -56z m2182 -23 l0 -50 -1040 0 -1040 0 0 50 0 50 1040 0
1040 0 0 -50z m-1961 -369 c28 -35 51 -67 51 -72 0 -23 -29 -4 -65 41 -22 28
-42 50 -46 50 -3 0 -23 -15 -44 -33 l-39 -34 38 -46 c32 -39 36 -48 22 -53 -9
-4 -18 -5 -19 -3 -25 37 -60 79 -67 79 -4 0 -26 -15 -48 -33 l-39 -33 44 -58
c32 -42 42 -61 34 -69 -8 -8 -14 -6 -23 5 -7 9 -33 41 -56 72 -24 30 -41 59
-38 64 3 5 31 29 63 53 32 24 84 66 117 92 32 26 60 47 61 45 2 -2 26 -32 54
-67z m2041 -86 c80 -29 110 -48 99 -61 -9 -11 -20 -9 -59 6 l-48 19 -41 -44
c-23 -25 -41 -47 -41 -51 0 -3 10 -24 22 -45 17 -30 19 -42 10 -51 -6 -6 -13
-10 -15 -7 -10 13 -77 131 -77 135 0 3 -18 37 -41 75 -38 66 -40 72 -24 89 15
17 19 16 98 -17 45 -19 98 -40 117 -48z m-1722 -171 c75 -48 81 -72 40 -153
-18 -36 -50 -83 -70 -104 -35 -37 -41 -39 -78 -34 -38 5 -150 63 -150 77 0 5
46 81 146 238 18 28 36 24 112 -24z m1292 13 c0 -7 -27 -25 -60 -41 -33 -16
-60 -31 -60 -33 0 -2 10 -23 23 -46 12 -23 23 -43 24 -45 0 -2 24 8 52 22 59
30 61 31 61 11 0 -8 -22 -26 -49 -39 l-49 -25 25 -51 c27 -57 31 -57 106 -14
47 27 67 30 67 12 0 -12 -135 -88 -156 -88 -13 0 -149 268 -140 277 15 15 141
79 149 75 4 -2 7 -9 7 -15z m-360 -162 c0 -11 -11 -15 -41 -15 -41 0 -78 -14
-91 -34 -20 -29 0 -173 28 -211 18 -24 93 -27 119 -5 14 12 18 11 26 -1 12
-20 -13 -37 -69 -45 -64 -10 -93 4 -118 53 -27 53 -40 161 -24 207 14 42 57
65 123 66 35 0 47 -4 47 -15z m-491 -67 c7 -40 18 -111 26 -158 20 -112 20
-113 -5 -100 -14 7 -20 21 -20 43 0 46 -8 53 -73 64 -62 11 -63 10 -91 -44
-15 -31 -46 -46 -46 -23 0 6 19 46 42 88 22 42 54 102 71 132 16 30 31 58 34
63 2 4 15 7 28 7 21 0 24 -6 34 -72z"/>
<path d="M1695 3454 c-3 -32 -9 -72 -12 -87 -4 -25 -2 -28 13 -24 11 3 34 8
52 12 17 4 32 8 32 10 0 2 -18 36 -39 76 l-39 72 -7 -59z"/>
<path d="M1153 3314 c-24 -14 -43 -29 -43 -33 0 -7 40 -73 88 -147 6 -10 17
-29 24 -41 14 -29 24 -28 73 5 62 43 57 88 -24 200 -37 50 -57 52 -118 16z"/>
<path d="M3050 2978 c-35 -16 -66 -31 -68 -33 -6 -6 39 -63 54 -69 9 -3 27 19
50 60 20 36 35 66 33 68 -2 2 -33 -10 -69 -26z"/>
<path d="M514 2562 c-13 -8 -44 -77 -44 -97 0 -7 28 -23 62 -34 72 -24 80 -20
93 45 7 42 -5 61 -52 81 -37 15 -44 16 -59 5z"/>
<path d="M720 1541 c-25 -10 -53 -21 -62 -24 -16 -6 -16 -9 -2 -44 23 -58 46
-73 92 -61 48 13 62 25 62 55 0 29 -26 93 -37 92 -4 0 -28 -8 -53 -18z"/>
<path d="M2890 1102 c0 -4 4 -12 9 -17 5 -6 21 -32 36 -60 15 -27 29 -52 32
-54 4 -6 73 60 73 70 0 4 -17 14 -37 22 -21 9 -55 23 -75 31 -21 9 -38 13 -38
8z"/>
<path d="M1215 803 c-33 -54 -61 -102 -63 -108 -3 -13 43 -49 76 -59 37 -12
60 3 102 64 52 76 63 106 50 131 -10 18 -81 69 -97 69 -5 0 -35 -44 -68 -97z"/>
<path d="M1722 647 c-18 -34 -32 -67 -32 -73 0 -10 50 -24 86 -24 8 0 7 22 -2
76 -7 42 -15 78 -16 80 -2 1 -18 -25 -36 -59z"/>
</g>
</svg>
